<svg xmlns="http://www.w3.org/2000/svg" width="72" height="72" viewBox="0 0 72 72"><g><g><path fill="#3f7dfa" d="M60.186 62.619l.035.03-1.197 1c-.12.1-.25.186-.372.284-.548.447-1.113.873-1.687 1.287-.24.173-.476.347-.719.512a35.923 35.923 0 0 1-2.643 1.64c-.774.436-1.563.846-2.37 1.225-.1.048-.2.09-.3.137a35.652 35.652 0 0 1-8.581 2.69c-.081.016-.164.03-.245.044-.938.161-1.888.288-2.85.376-.122.01-.244.017-.366.028-.96.077-1.927.128-2.908.128-.989 0-1.965-.051-2.931-.131-.12-.01-.237-.017-.355-.028a35.84 35.84 0 0 1-2.875-.382l-.24-.043a35.657 35.657 0 0 1-8.705-2.756l-.186-.083a35.987 35.987 0 0 1-2.942-1.56c-.733-.434-1.45-.891-2.149-1.373-.216-.149-.428-.302-.64-.455a36.306 36.306 0 0 1-1.917-1.476c-.076-.063-.158-.115-.234-.18l-1.168-.983.034-.03C4.501 55.934-.006 46.483-.006 36c0-19.85 16.145-36 35.99-36 19.844 0 35.99 16.15 35.99 36 0 10.538-4.551 20.032-11.788 26.619zm-46.483-1.793c.327-.235.654-.444.984-.624l10.348-5.646a2.92 2.92 0 0 0 1.52-2.563v-3.788c-.806-1.066-2.987-4.21-4.047-8.364a4.762 4.762 0 0 1-1.754-3.693v-4.641c0-1.135.417-2.236 1.16-3.101v-6.11c-.067-.68-.308-4.513 2.465-7.676 2.412-2.753 6.316-4.147 11.605-4.147 5.288 0 9.192 1.394 11.604 4.148 2.773 3.163 2.532 6.997 2.464 7.677v6.11a4.765 4.765 0 0 1 1.161 3.1v4.641a4.751 4.751 0 0 1-2.729 4.306 26.677 26.677 0 0 1-3.423 6.706c-.28.394-.551.753-.808 1.07v3.87c0 1.112.618 2.112 1.613 2.61l11.08 5.541c.397.2.784.437 1.17.703C65.003 54.836 69.355 45.92 69.355 36c0-18.407-14.97-33.382-33.372-33.382S2.61 17.593 2.61 36c0 9.847 4.288 18.71 11.092 24.826zm42.283 1.877c-.07-.037-.139-.074-.21-.109l-11.08-5.541a5.504 5.504 0 0 1-3.06-4.951v-4.843l.324-.37c.287-.329.62-.758.964-1.243a24.22 24.22 0 0 0 3.266-6.587l.21-.648.65-.2c.91-.282 1.546-1.129 1.546-2.062v-4.64a2.14 2.14 0 0 0-.73-1.602l-.431-.39.012-7.463c.002-.026.365-3.233-1.85-5.735-1.897-2.142-5.13-3.228-9.613-3.228-4.501 0-7.744 1.096-9.637 3.253-2.217 2.528-1.83 5.676-1.827 5.708l.012.171v7.292l-.432.39a2.138 2.138 0 0 0-.729 1.6v4.642a2.17 2.17 0 0 0 1.007 1.822l.446.289.12.518c1.068 4.662 3.898 8.105 3.927 8.138l.3.364.002 4.715a5.536 5.536 0 0 1-2.886 4.862L15.94 62.5a27.28 27.28 0 0 1-.126.07c.06.045.116.092.175.137a33.409 33.409 0 0 0 2.32 1.587c.645.403 1.3.789 1.968 1.146.094.051.191.098.287.148.733.381 1.475.742 2.231 1.068l.017.008c.8.343 1.614.654 2.437.934l.154.052c1.659.557 3.361.982 5.091 1.271l.11.02c.818.133 1.644.232 2.474.305.141.013.284.022.426.033.824.061 1.65.102 2.48.102.821 0 1.638-.04 2.45-.101a33.476 33.476 0 0 0 2.891-.332l.071-.014a33.55 33.55 0 0 0 2.57-.526l.008-.001c.84-.208 1.671-.45 2.492-.723l.166-.056a33.33 33.33 0 0 0 4.565-1.932c.143-.074.285-.144.427-.22.641-.34 1.27-.703 1.887-1.086.221-.137.437-.278.654-.42.473-.307.938-.63 1.397-.962.141-.102.285-.2.425-.306z"/></g></g></svg>