<svg xmlns="http://www.w3.org/2000/svg" width="93" height="93" viewBox="0 0 93 93"><g><g><path fill="#fff" d="M93 39.761v45.633c0 4.2-3.26 7.606-7.281 7.606H56.593c-4.022 0-7.281-3.405-7.281-7.606V39.761c0-4.2 3.26-7.605 7.281-7.605H85.72c4.021 0 7.28 3.405 7.28 7.605zm-4.855 0c0-1.399-1.087-2.535-2.426-2.535H56.593c-1.34 0-2.427 1.136-2.427 2.536v7.58h33.98zM54.166 85.394c0 1.4 1.087 2.535 2.427 2.535H85.72c1.34 0 2.426-1.135 2.426-2.535V52.412H54.166zm9.005-23.551a2.373 2.373 0 0 1-1.724.735 2.367 2.367 0 0 1-.922-.203 2.24 2.24 0 0 1-1.31-1.369 2.594 2.594 0 0 1 .51-2.764 2.365 2.365 0 0 1 3.446 0 2.627 2.627 0 0 1 0 3.6zm.014 10.125l-.014.015a2.372 2.372 0 0 1-1.724.735 2.364 2.364 0 0 1-.922-.202c-.3-.117-.573-.3-.8-.533a2.615 2.615 0 0 1 0-3.6c.227-.236.5-.415.8-.532a2.35 2.35 0 0 1 2.646.532c.951.986.958 2.591.014 3.585zm9.665-10.125c-.45.466-1.058.73-1.694.735a2.366 2.366 0 0 1-.922-.203 2.817 2.817 0 0 1-.801-.532 2.563 2.563 0 0 1-.51-.837 2.593 2.593 0 0 1 .51-2.764 2.354 2.354 0 0 1 3.431.016 2.615 2.615 0 0 1-.014 3.585zm0 10.115c-.45.466-1.058.73-1.694.735a2.363 2.363 0 0 1-.922-.203 2.82 2.82 0 0 1-.801-.532 2.562 2.562 0 0 1-.51-.837 2.592 2.592 0 0 1 .51-2.763 2.354 2.354 0 0 1 3.431.015 2.615 2.615 0 0 1-.014 3.585zm-9.665 10.15l-.014.016a2.372 2.372 0 0 1-1.724.735 2.364 2.364 0 0 1-.922-.203c-.3-.116-.573-.299-.8-.532a2.615 2.615 0 0 1-.015-3.585l.014-.015c.228-.236.5-.416.801-.532a2.35 2.35 0 0 1 2.646.532c.951.986.958 2.59.014 3.585zm9.665-.01c-.45.467-1.058.73-1.694.736a2.36 2.36 0 0 1-.922-.203 2.813 2.813 0 0 1-.801-.532 2.565 2.565 0 0 1-.51-.837 2.592 2.592 0 0 1 .51-2.764 2.354 2.354 0 0 1 3.431.016 2.615 2.615 0 0 1-.014 3.585zm10.442-22.055c-.005.332-.07.659-.195.963a2.56 2.56 0 0 1-.51.837 2.494 2.494 0 0 1-1.723.735 2.367 2.367 0 0 1-.922-.203 2.815 2.815 0 0 1-.801-.532 2.564 2.564 0 0 1-.51-.837 2.594 2.594 0 0 1 .51-2.764c.235-.222.507-.402.801-.532a2.35 2.35 0 0 1 2.646.533c.453.479.708 1.125.704 1.8zm0 10.14v10.14c0 1.4-1.088 2.536-2.428 2.536-1.34 0-2.427-1.136-2.427-2.535v-10.14c0-1.4 1.087-2.536 2.427-2.536s2.427 1.136 2.427 2.535zM43.281 4.527c-4.633 0-8.944 2.68-11.26 6.987l-1.51 2.808-3.03-.57c-.625-.116-1.09-.169-1.513-.169-3.643 0-6.906 2.45-8.124 6.102l-1.082 3.25-3.288-.225a7.049 7.049 0 0 1-.626-.07c-4.708.079-8.521 4.112-8.521 9.055 0 4.997 3.884 9.056 8.656 9.056h27.464c.817 0 2.867.182 2.867 2.474 0 1.556-1.187 2.054-2.654 2.054H12.984C5.816 45.279 0 39.194 0 31.695c0-7.5 5.816-13.584 12.984-13.584.267 0 .516.062.774.08 1.767-5.306 6.539-9.136 12.211-9.136.782 0 1.539.102 2.278.24C31.214 3.775 36.798 0 43.282 0 52.842 0 59.32 5.49 59.32 15.49c0 .275-.068.531-.076.805 1.339.488 3.328 2.498 4.453 3.352.72.546 1.036 2.496 0 3.93-1.192 1.649-4.102-.095-4.6-.382l-4.283-3.716.11-3.325c.008-.283.034-.557.068-.831-.085-7.411-4.602-10.797-11.711-10.797"/></g></g></svg>