<svg xmlns="http://www.w3.org/2000/svg" width="53" height="42" viewBox="0 0 53 42"><g><g><path d="M30.984 31.505h3.072v4.498c0 3.312-2.75 5.998-6.143 5.998H6.143c-3.393 0-6.144-2.686-6.144-5.998V6.013C0 2.7 2.75.015 6.143.015h21.77c3.393 0 6.143 2.686 6.143 5.998v4.498h-3.072V6.013c0-1.656-1.374-3-3.071-3H6.143c-1.697 0-3.072 1.344-3.072 3v29.99c0 1.656 1.375 3 3.072 3h21.77c1.697 0 3.071-1.344 3.071-3zm-14.821-11.99h31.656l-8.088-7.823a1.457 1.457 0 0 1 0-2.11 1.58 1.58 0 0 1 2.181 0l10.644 10.297c.322.31.46.722.438 1.129.021.407-.116.82-.437 1.13L41.914 32.433a1.58 1.58 0 0 1-2.182 0 1.457 1.457 0 0 1 0-2.11L47.82 22.5H16.163c-.852 0-1.543-.668-1.543-1.492 0-.823.69-1.492 1.543-1.492z"/></g></g></svg>